<svg xmlns="http://www.w3.org/2000/svg" viewBox="0 0 200 220" role="img" aria-labelledby="title-mascot">
  <title id="title-mascot">Marca provisional: chef de la pizzería con gorro de cocinero y bigote</title>
  <ellipse cx="100" cy="205" rx="70" ry="10" fill="#000000" opacity="0.12"/>
  <path d="M45 95c0-30 24-54 55-54s55 24 55 54c6 3 10 9 10 16 0 10-8 18-18 18H53c-10 0-18-8-18-18 0-7 4-13 10-16z" fill="#faf5ec"/>
  <rect x="50" y="118" width="100" height="14" rx="4" fill="#e7dcc4"/>
  <path d="M58 132h84l-8 62a14 14 0 0 1-14 12H80a14 14 0 0 1-14-12z" fill="#e7b85c"/>
  <circle cx="82" cy="156" r="4" fill="#8c3226"/>
  <circle cx="118" cy="156" r="4" fill="#8c3226"/>
  <circle cx="100" cy="170" r="4" fill="#3a6b3f"/>
  <g fill="#241b14">
    <circle cx="76" cy="150" r="6"/>
    <circle cx="124" cy="150" r="6"/>
  </g>
  <path d="M70 178c8 10 18 10 30 10s22 0 30-10c-4 12-16 20-30 20s-26-8-30-20z" fill="#faf5ec"/>
  <rect x="86" y="196" width="28" height="16" rx="3" fill="#049a3f"/>
  <rect x="86" y="196" width="28" height="5.3" fill="#ffd400"/>
  <rect x="86" y="206.7" width="28" height="5.3" fill="#002776"/>
</svg>
